PathFileType	4	(X/Y/Z)	Static_1_OpenSim.trc																																																																																																																						
DataRate	CameraRate	NumFrames	NumMarkers	Units	OrigDataRate	OrigDataStartFrame	OrigNumFrames																																																																																																																		
100	100	10	40	mm	100	310	619																																																																																																																		
Frame#	Time	R.ASIS			R.PSIS			S2			L.PSIS			L.ASIS			R.TH1			R.TH2			R.TH3			R.MKnee			R.Knee			R.SH1			R.SH2			R.SH3			R.SH4			R.Ankle			R.MAnkle			R.Heel			R.MT5			R.MT1			L.TH1			L.TH2			L.TH3			L.TH4			L.MKnee			L.Knee			L.SH1			L.SH2			L.SH3			L.Ankle			L.MAnkle			L.Heel			L.MT5			L.MT1			R.Acr			L.Acr			C7			T10			Clav			Sternum			R.Back		
		X1	Y1	Z1	X2	Y2	Z2	X3	Y3	Z3	X4	Y4	Z4	X5	Y5	Z5	X6	Y6	Z6	X7	Y7	Z7	X8	Y8	Z8	X9	Y9	Z9	X10	Y10	Z10	X11	Y11	Z11	X12	Y12	Z12	X13	Y13	Z13	X14	Y14	Z14	X15	Y15	Z15	X16	Y16	Z16	X17	Y17	Z17	X18	Y18	Z18	X19	Y19	Z19	X20	Y20	Z20	X21	Y21	Z21	X22	Y22	Z22	X23	Y23	Z23	X24	Y24	Z24	X25	Y25	Z25	X26	Y26	Z26	X27	Y27	Z27	X28	Y28	Z28	X29	Y29	Z29	X30	Y30	Z30	X31	Y31	Z31	X32	Y32	Z32	X33	Y33	Z33	X34	Y34	Z34	X35	Y35	Z35	X36	Y36	Z36	X37	Y37	Z37	X38	Y38	Z38	X39	Y39	Z39	X40	Y40	Z40
310	3.09	896.1893	1070.2916	-433.7274	688.8472	1079.6278	-534.6251	679.8811	1076.8955	-580.3424	692.9866	1082.2723	-631.1042	892.4235	1067.8768	-725.5144	855.5815	738.3298	-398.6359	773.5204	737.7854	-395.5405	773.6023	628.2853	-403.409	811.4458	501.6436	-519.7369	792.8925	512.8008	-406.4213	789.3991	349.8775	-391.2804	792.2795	238.3829	-402.5315	707.1774	350.2807	-399.9057	710.5458	236.8148	-400.9306	725.3852	77.9946	-402.1988	789.7858	92.9086	-480.5075	685.9116	37.1035	-474.5932	823.8148	37.8584	-336.0672	898.1045	39.5653	-404.3179	873.7817	766.3569	-753.0859	860.3837	658.3199	-750.8652	791.129	772.6269	-765.5561	781.0029	663.1778	-754.947	824.6027	501.0232	-643.3135	812.4489	518.3626	-751.3676	799.1042	392.4572	-782.3202	717.1583	399.3011	-772.6141	711.0938	289.6935	-774.6586	752.4164	83.9006	-797.2819	798.2728	91.4186	-703.5141	696.4248	43.6506	-734.8519	854.9937	33.1194	-833.3881	910.9895	45.1613	-741.438	810.7327	1489.5248	-430.7085	793.0356	1478.3455	-727.9371	757.6818	1505.2489	-579.8178	744.8598	1179.9828	-578.3686	900.5861	1419.8536	-583.3065	935.7025	1275.8315	-572.7404	683.1114	1402.2831	-498.7285
311	3.1	896.1954	1070.2899	-433.7032	688.8562	1079.6306	-534.6097	679.8843	1076.8995	-580.3284	692.9952	1082.276	-631.0841	892.4275	1067.8705	-725.5029	855.5825	738.3285	-398.6235	773.5168	737.7909	-395.5187	773.6016	628.2861	-403.4275	811.4296	501.6466	-519.7286	792.8793	512.7999	-406.4126	789.3893	349.8794	-391.2718	792.2725	238.3877	-402.5233	707.1721	350.2789	-399.8974	710.5401	236.8166	-400.9207	725.3848	77.9927	-402.2083	789.7651	92.8957	-480.4968	685.9136	37.101	-474.5943	823.8129	37.8613	-336.0659	898.0998	39.5661	-404.312	873.7776	766.3487	-753.0692	860.4044	658.3446	-750.8075	791.1296	772.6252	-765.538	780.9981	663.1693	-754.9308	824.5865	501.023	-643.2946	812.4354	518.3489	-751.3633	799.0953	392.4602	-782.3105	717.1511	399.301	-772.6088	711.096	289.6886	-774.6594	752.4166	83.9012	-797.2774	798.2688	91.417	-703.5109	696.4244	43.6516	-734.8472	854.9977	33.1212	-833.3856	911.0097	45.1597	-741.4428	810.7449	1489.5244	-430.7185	793.0301	1478.3186	-727.9413	757.7083	1505.2516	-579.826	744.8683	1179.9869	-578.3519	900.5828	1419.8329	-583.3207	935.6871	1275.7974	-572.7433	683.1212	1402.2875	-498.7388
312	3.11	896.1965	1070.2915	-433.678	688.8616	1079.6323	-534.5944	679.8851	1076.9027	-580.3129	693.0007	1082.2783	-631.0641	892.4287	1067.8654	-725.4928	855.5798	738.33	-398.6079	773.5104	737.7982	-395.4969	773.6011	628.2886	-403.465	811.4095	501.6502	-519.72	792.8626	512.8005	-406.4029	789.3754	349.8835	-391.2612	792.269	238.3924	-402.5178	707.1656	350.278	-399.8879	710.5336	236.8196	-400.909	725.3832	77.9915	-402.2223	789.7294	92.8789	-480.4821	685.9139	37.098	-474.5968	823.8096	37.8644	-336.0598	898.0914	39.5667	-404.3057	873.7725	766.331	-753.0513	860.4238	658.3685	-750.7514	791.1296	772.6259	-765.5208	780.9966	663.1638	-754.9164	824.5689	501.0246	-643.2753	812.4213	518.3334	-751.3616	799.084	392.463	-782.3019	717.1451	399.3017	-772.6039	711.0982	289.684	-774.6609	752.4127	83.9016	-797.2736	798.2618	91.4182	-703.506	696.4238	43.6531	-734.8433	854.9953	33.124	-833.384	911.0145	45.1602	-741.4445	810.7512	1489.5226	-430.7284	793.0224	1478.2915	-727.9457	757.7299	1505.2538	-579.8324	744.8757	1179.9904	-578.3342	900.5774	1419.8114	-583.3369	935.6699	1275.7642	-572.7458	683.1268	1402.2899	-498.7524
313	3.12	896.1951	1070.295	-433.6532	688.8644	1079.6332	-534.5789	679.8837	1076.9054	-580.2956	693.0038	1082.2798	-631.0433	892.4284	1067.861	-725.4838	855.5736	738.3326	-398.5904	773.5021	737.8058	-395.4762	773.6012	628.2924	-403.5232	811.387	501.6533	-519.7109	792.8432	512.8017	-406.3922	789.3583	349.8882	-391.2495	792.2679	238.3967	-402.5147	707.1574	350.2777	-399.878	710.5263	236.8229	-400.8967	725.3809	77.9899	-402.2369	789.6811	92.856	-480.4632	685.9126	37.0953	-474.6	823.8056	37.8668	-336.0504	898.0809	39.5672	-404.2996	873.7679	766.3107	-753.0317	860.4399	658.3881	-750.7016	791.1293	772.6285	-765.5039	780.9976	663.1606	-754.9041	824.5513	501.0273	-643.2578	812.4088	518.3176	-751.3609	799.0728	392.4658	-782.294	717.1409	399.3029	-772.5996	711.1025	289.6783	-774.6633	752.4055	83.9021	-797.2709	798.2537	91.4218	-703.5006	696.4229	43.6548	-734.8405	854.988	33.1266	-833.3835	911.0064	45.1622	-741.4435	810.7517	1489.5187	-430.7383	793.0122	1478.2649	-727.9496	757.7461	1505.2555	-579.837	744.882	1179.993	-578.3156	900.5699	1419.7904	-583.3536	935.6517	1275.7323	-572.7482	683.1285	1402.2906	-498.7704
314	3.13	896.1935	1070.2986	-433.6292	688.8657	1079.6335	-534.5631	679.8807	1076.908	-580.2773	693.0055	1082.2806	-631.0202	892.4286	1067.8563	-725.4755	855.5651	738.3345	-398.5723	773.4933	737.8126	-395.4575	773.6021	628.2966	-403.5993	811.3643	501.6545	-519.7011	792.8229	512.8026	-406.3809	789.3402	349.8915	-391.2376	792.2676	238.4001	-402.513	707.148	350.2774	-399.8675	710.5182	236.8257	-400.8847	725.3791	77.9868	-402.246	789.6261	92.8262	-480.441	685.9108	37.0929	-474.6029	823.8019	37.8674	-336.0406	898.071	39.5669	-404.2957	873.7658	766.2949	-753.0109	860.4532	658.402	-750.6602	791.1295	772.6321	-765.4871	781.0002	663.1589	-754.8934	824.536	501.029	-643.2435	812.3997	518.303	-751.3596	799.0644	392.4679	-782.2861	717.1395	399.3039	-772.5955	711.1124	289.67	-774.6673	752.397	83.9024	-797.2695	798.2465	91.426	-703.4957	696.4219	43.6565	-734.8391	854.9797	33.1277	-833.384	910.9918	45.1646	-741.4411	810.7468	1489.5126	-430.7485	792.9991	1478.2396	-727.9524	757.757	1505.2571	-579.8403	744.8869	1179.9948	-578.2963	900.5604	1419.7715	-583.3692	935.6336	1275.7015	-572.7507	683.1262	1402.2893	-498.7928
315	3.14	896.1933	1070.3007	-433.606	688.8667	1079.6334	-534.5467	679.8768	1076.91	-580.2586	693.0068	1082.2809	-630.9942	892.431	1067.8506	-725.4681	855.5562	738.3351	-398.5546	773.4855	737.8173	-395.4412	773.6031	628.3008	-403.6825	811.3431	501.653	-519.6909	792.804	512.8027	-406.3693	789.3236	349.8926	-391.2265	792.2672	238.4027	-402.5117	707.1379	350.277	-399.8561	710.5093	236.8273	-400.874	725.3787	77.9822	-402.2445	789.5728	92.7914	-480.4181	685.9095	37.0905	-474.6052	823.7996	37.8659	-336.0325	898.0647	39.5652	-404.2962	873.7671	766.2874	-752.99	860.4648	658.4103	-750.6279	791.1312	772.635	-765.47	781.004	663.1572	-754.8831	824.5254	501.028	-643.2328	812.3953	518.29	-751.3567	799.0609	392.4686	-782.2779	717.1414	399.304	-772.5915	711.1277	289.6592	-774.672	752.3893	83.9021	-797.2695	798.2417	91.4292	-703.4922	696.4203	43.6582	-734.8391	854.9737	33.1264	-833.3849	910.9749	45.1669	-741.4378	810.7373	1489.5046	-430.7586	792.9821	1478.2154	-727.9547	757.7633	1505.2584	-579.8431	744.8903	1179.9951	-578.2764	900.5486	1419.7549	-583.3829	935.6161	1275.6722	-572.7534	683.1197	1402.2861	-498.8186
316	3.15	896.1952	1070.3008	-433.5837	688.868	1079.6334	-534.5297	679.8728	1076.9117	-580.2402	693.0086	1082.2806	-630.9651	892.4357	1067.8429	-725.4614	855.5485	738.3339	-398.5381	773.4797	737.8199	-395.4264	773.6032	628.3049	-403.7588	811.3243	501.6483	-519.6802	792.7887	512.8018	-406.3574	789.3103	349.8913	-391.2169	792.2665	238.4045	-402.5104	707.1281	350.2764	-399.8441	710.5002	236.8274	-400.8652	725.3801	77.9765	-402.2327	789.529	92.7564	-480.3978	685.9094	37.0877	-474.6067	823.7997	37.8627	-336.0271	898.0631	39.5614	-404.3022	873.7711	766.2883	-752.9697	860.4756	658.4136	-750.6044	791.1344	772.6355	-765.4528	781.009	663.155	-754.8719	824.5205	501.0236	-643.2255	812.3953	518.2787	-751.3514	799.0618	392.4665	-782.2696	717.1462	399.3028	-772.5875	711.1444	289.6478	-774.6753	752.3837	83.9	-797.2711	798.2396	91.4304	-703.4899	696.4176	43.6604	-734.8403	854.9719	33.1222	-833.3859	910.9537	45.1693	-741.4327	810.7241	1489.4957	-430.7679	792.9595	1478.1909	-727.9573	757.766	1505.2594	-579.8474	744.892	1179.9943	-578.2562	900.5344	1419.7396	-583.3948	935.5999	1275.6446	-572.7564	683.1089	1402.2816	-498.8462
317	3.16	896.1993	1070.2988	-433.5627	688.8701	1079.634	-534.5117	679.8692	1076.9128	-580.2224	693.0113	1082.28	-630.9338	892.442	1067.833	-725.4553	855.5431	738.3306	-398.5232	773.4763	737.8202	-395.4123	773.6018	628.3084	-403.8175	811.3079	501.6409	-519.6692	792.7781	512.8001	-406.3454	789.3007	349.8877	-391.2088	792.2649	238.4061	-402.5088	707.1191	350.2756	-399.8318	710.4913	236.8259	-400.8585	725.3828	77.9704	-402.2164	789.4998	92.7261	-480.3827	685.9109	37.0845	-474.6078	823.8023	37.8586	-336.0242	898.0653	39.556	-404.3112	873.7759	766.2954	-752.951	860.4854	658.4126	-750.5892	791.1389	772.6335	-765.4351	781.0148	663.1521	-754.8591	824.5209	501.0166	-643.2205	812.3986	518.2687	-751.3438	799.0654	392.4606	-782.2615	717.1531	399.3	-772.5831	711.158	289.6381	-774.6758	752.381	83.8959	-797.2737	798.2397	91.4295	-703.4888	696.4133	43.6631	-734.842	854.9745	33.1156	-833.3863	910.9255	45.1719	-741.4249	810.7077	1489.4865	-430.7757	792.9312	1478.1648	-727.9605	757.7656	1505.2594	-579.8547	744.8918	1179.9924	-578.2359	900.5179	1419.7247	-583.4059	935.5848	1275.619	-572.7597	683.0934	1402.2765	-498.8748
318	3.17	896.2054	1070.2958	-433.5438	688.8729	1079.636	-534.4932	679.866	1076.9136	-580.2051	693.0147	1082.2788	-630.902	892.4488	1067.8215	-725.4492	855.5406	738.3255	-398.5101	773.4748	737.8185	-395.3986	773.5997	628.311	-403.8556	811.2934	501.6319	-519.6583	792.7725	512.7974	-406.3332	789.2945	349.8824	-391.2022	792.2622	238.4077	-402.5073	707.1114	350.2747	-399.8207	710.4832	236.8229	-400.8538	725.3865	77.9651	-402.2022	789.4851	92.7033	-480.3737	685.9134	37.0815	-474.6084	823.8071	37.8546	-336.0226	898.0691	39.5502	-404.3194	873.7806	766.3057	-752.9343	860.4938	658.4092	-750.5808	791.1439	772.6296	-765.4167	781.0209	663.15	-754.8445	824.5261	501.0089	-643.2165	812.4033	518.2593	-751.3345	799.0699	392.4512	-782.2539	717.1608	399.296	-772.5785	711.1659	289.6314	-774.673	752.3809	83.8909	-797.277	798.2416	91.4273	-703.4885	696.408	43.6661	-734.8436	854.9804	33.1081	-833.386	910.8926	45.1742	-741.415	810.6888	1489.4769	-430.7821	792.8984	1478.1372	-727.9631	757.7624	1505.2582	-579.865	744.8904	1179.99	-578.2164	900.4989	1419.7095	-583.417	935.5705	1275.5952	-572.7629	683.0736	1402.271	-498.9044
319	3.18	896.2127	1070.293	-433.527	688.8765	1079.6393	-534.4747	679.8633	1076.9141	-580.1885	693.0186	1082.2773	-630.8724	892.4551	1067.8101	-725.4427	855.5407	738.3196	-398.4989	773.4748	737.8156	-395.385	773.5981	628.3124	-403.8751	811.2808	501.6229	-519.6481	792.7712	512.7943	-406.321	789.2909	349.8765	-391.1964	792.2589	238.4094	-402.5056	707.1053	350.2738	-399.8119	710.4764	236.8191	-400.8504	725.3904	77.9616	-402.1945	789.4825	92.6893	-480.37	685.9161	37.0799	-474.6083	823.8129	37.8517	-336.0217	898.0725	39.5461	-404.324	873.7851	766.3164	-752.9193	860.5011	658.4057	-750.577	791.1486	772.6248	-765.3976	781.0268	663.1508	-754.8285	824.5349	501.0028	-643.2122	812.4085	518.251	-751.3242	799.0742	392.4407	-782.2468	717.1679	399.2921	-772.5735	711.1689	289.628	-774.6677	752.3823	83.887	-797.2806	798.2443	91.4248	-703.4886	696.4033	43.669	-734.8445	854.988	33.1023	-833.3845	910.8646	45.1753	-741.4066	810.6681	1489.4672	-430.7876	792.8635	1478.1095	-727.9647	757.7569	1505.256	-579.8773	744.8887	1179.9873	-578.1988	900.4778	1419.6945	-583.4283	935.5565	1275.5738	-572.7656	683.05	1402.2655	-498.9352
